<svg id="Layer_1" data-name="Layer 1" xmlns="http://www.w3.org/2000/svg" viewBox="0 0 1080 1080"><defs><style>.cls-1,.cls-2{fill:#b9a35f;}.cls-2{font-size:137.06px;font-family:AgencyFB-Reg, Agency FB;}</style></defs><path class="cls-1" d="M830.34,291.37v405H742.81V222.55L505.74,35l-.33,54.7V696.32H399.12V170.4L182.64,344.07V765.49h69.55s-.39-55.16-.39-387.81L330,316.22V765.49H575.31V178.25l94,71.21v516h228V344.07Z"/><text class="cls-2" transform="translate(340.37 960.54)">M ESTATE</text><path class="cls-1" d="M286.38,1043.09a13.47,13.47,0,0,1-4.2,1.85,11.6,11.6,0,0,1-3.2.34,13.4,13.4,0,0,1-5.23-1,11.54,11.54,0,0,1-3.92-2.72,12.35,12.35,0,0,1-2.47-4,13.33,13.33,0,0,1-.85-4.78,14.9,14.9,0,0,1,.87-5.18,11.55,11.55,0,0,1,6.43-6.75,12.46,12.46,0,0,1,4.93-1,13.46,13.46,0,0,1,4.15.6,14,14,0,0,1,3.15,1.43l-1.51,3.42a15,15,0,0,0-2.43-1.32,8.07,8.07,0,0,0-3.26-.63,8.15,8.15,0,0,0-3.27.68,8.26,8.26,0,0,0-2.74,2,9.47,9.47,0,0,0-2.55,6.58,10.53,10.53,0,0,0,.61,3.61,8.32,8.32,0,0,0,1.79,2.93,8.22,8.22,0,0,0,2.75,1.92,10,10,0,0,0,7,.1,8.85,8.85,0,0,0,2.38-1.34Z"/><path class="cls-1" d="M292.82,1020.17h3.63v21.31h12.44V1045H292.82Z"/><path class="cls-1" d="M315.23,1020.17h3.63V1045h-3.63Z"/><path class="cls-1" d="M326.85,1020.17h16.27v3.49H330.48v7.09h11.27v3.53H330.48v7.2H343.6V1045H326.85Z"/><path class="cls-1" d="M371.94,1045.87l-19.16-19,1.07.38.07,17.78h-3.67v-25.67h.14l18.88,19-.83-.2-.06-18H372v25.7Z"/><path class="cls-1" d="M378.21,1020.17h16.55v3.49h-6.55V1045h-3.66v-21.35h-6.34Z"/><path class="cls-1" d="M412.78,1020.17h14.87v3.49H416.41v7.44h9.84v3.53h-9.84V1045h-3.63Z"/><path class="cls-1" d="M432,1032.61a12.31,12.31,0,0,1,1-4.87,13.34,13.34,0,0,1,2.71-4.08,12.57,12.57,0,0,1,13.89-2.77,12.69,12.69,0,0,1,4.06,2.77,13.14,13.14,0,0,1,2.76,4.08,12.16,12.16,0,0,1,1,4.87,12.34,12.34,0,0,1-1,4.93,12.65,12.65,0,0,1-2.77,4,13.08,13.08,0,0,1-4.06,2.73,12.38,12.38,0,0,1-4.92,1,12.63,12.63,0,0,1-4.93-1,12.18,12.18,0,0,1-4-2.69,12.46,12.46,0,0,1-3.68-9Zm3.77,0a9.07,9.07,0,0,0,2.6,6.49,9.08,9.08,0,0,0,2.86,2,8.77,8.77,0,0,0,3.51.7,8.49,8.49,0,0,0,3.46-.7,8.84,8.84,0,0,0,2.83-2,9.23,9.23,0,0,0,2.59-6.49A9.13,9.13,0,0,0,453,1029a9.73,9.73,0,0,0-1.9-2.93,8.73,8.73,0,0,0-6.37-2.7,8.54,8.54,0,0,0-3.51.72,8.9,8.9,0,0,0-2.85,2,8.8,8.8,0,0,0-1.86,3A9.67,9.67,0,0,0,435.81,1032.61Z"/><path class="cls-1" d="M482.2,1043.09a13.47,13.47,0,0,1-4.2,1.85,11.6,11.6,0,0,1-3.2.34,13.36,13.36,0,0,1-5.23-1,11.44,11.44,0,0,1-3.92-2.72,12.18,12.18,0,0,1-2.47-4,13.33,13.33,0,0,1-.85-4.78,14.9,14.9,0,0,1,.87-5.18,11.57,11.57,0,0,1,6.42-6.75,12.54,12.54,0,0,1,4.94-1,13.35,13.35,0,0,1,4.14.6,13.87,13.87,0,0,1,3.16,1.43l-1.51,3.42a15,15,0,0,0-2.43-1.32,8.07,8.07,0,0,0-3.26-.63,8.12,8.12,0,0,0-6,2.64,9.54,9.54,0,0,0-2.56,6.58,10.53,10.53,0,0,0,.62,3.61,8.45,8.45,0,0,0,1.78,2.93,8.36,8.36,0,0,0,2.76,1.92,10,10,0,0,0,7,.1,8.85,8.85,0,0,0,2.38-1.34Z"/><path class="cls-1" d="M491.89,1036.13a5.34,5.34,0,0,0,.79,2.85,6,6,0,0,0,2.09,2,5.8,5.8,0,0,0,3,.75,6,6,0,0,0,3-.75,5.71,5.71,0,0,0,2.09-2,5.32,5.32,0,0,0,.77-2.85v-16h3.6v16a8.82,8.82,0,0,1-1.27,4.78,8.62,8.62,0,0,1-3.44,3.17,10.74,10.74,0,0,1-9.59,0,8.68,8.68,0,0,1-3.41-3.17,8.82,8.82,0,0,1-1.27-4.78v-16h3.66Z"/><path class="cls-1" d="M527.74,1024.9a20,20,0,0,0-2.82-1.15,9.27,9.27,0,0,0-2.91-.5,4.83,4.83,0,0,0-3,.88,2.85,2.85,0,0,0-1.13,2.38,2.59,2.59,0,0,0,.76,1.85,7,7,0,0,0,1.95,1.38,22.54,22.54,0,0,0,2.54,1.08,20.85,20.85,0,0,1,2.24,1,9.18,9.18,0,0,1,2,1.39,5.8,5.8,0,0,1,1.44,2,7.55,7.55,0,0,1,.53,3,6.56,6.56,0,0,1-1,3.55,7,7,0,0,1-2.82,2.55,9.51,9.51,0,0,1-4.42,1,13,13,0,0,1-3.09-.36,16.63,16.63,0,0,1-2.79-.94,12.32,12.32,0,0,1-2.35-1.34l1.61-2.87a9.67,9.67,0,0,0,1.89,1.14,14,14,0,0,0,2.21.83,8.22,8.22,0,0,0,2.18.32,6.57,6.57,0,0,0,2.22-.39,4.42,4.42,0,0,0,1.84-1.24,3.2,3.2,0,0,0,.73-2.21,3.07,3.07,0,0,0-.65-2,5.65,5.65,0,0,0-1.68-1.38,14.71,14.71,0,0,0-2.26-1c-.75-.28-1.54-.59-2.35-1a11.17,11.17,0,0,1-2.24-1.34,6,6,0,0,1-1.66-1.93,5.72,5.72,0,0,1-.64-2.83,6.36,6.36,0,0,1,3.57-5.86,8.61,8.61,0,0,1,3.83-.89,14.29,14.29,0,0,1,4.39.6,15.32,15.32,0,0,1,3.29,1.49Z"/><path class="cls-1" d="M533.82,1041.67a1.8,1.8,0,0,1,2.63,0,1.86,1.86,0,0,1,0,2.81,1.9,1.9,0,0,1-2.63,0,1.94,1.94,0,0,1,0-2.81Z"/><path class="cls-1" d="M561.11,1020.17a12.26,12.26,0,0,1,3.61.51,8.23,8.23,0,0,1,2.86,1.51,6.61,6.61,0,0,1,1.85,2.45,8,8,0,0,1,.65,3.34,10.53,10.53,0,0,1-.42,2.93,7,7,0,0,1-4,4.51,10.12,10.12,0,0,1-4,.71H558V1045h-3.63v-24.84Zm.44,12.4a5.56,5.56,0,0,0,2.32-.43,4,4,0,0,0,1.47-1.09,4.32,4.32,0,0,0,.75-1.44,5,5,0,0,0,0-2.92,4.66,4.66,0,0,0-.75-1.47,3.91,3.91,0,0,0-1.42-1.13,5,5,0,0,0-2.2-.43H558v8.91Zm4.18,2.19,6.44,10.25h-4.25l-6.54-10.18Z"/><path class="cls-1" d="M578.07,1020.17h16.27v3.49H581.7v7.09H593v3.53H581.7v7.2h13.12V1045H578.07Z"/><path class="cls-1" d="M614.39,1024.9a20.36,20.36,0,0,0-2.81-1.15,9.37,9.37,0,0,0-2.91-.5,4.81,4.81,0,0,0-3,.88,2.82,2.82,0,0,0-1.13,2.38,2.62,2.62,0,0,0,.75,1.85,7,7,0,0,0,2,1.38,23.35,23.35,0,0,0,2.54,1.08,20.85,20.85,0,0,1,2.24,1,9.18,9.18,0,0,1,2,1.39,5.8,5.8,0,0,1,1.44,2,7.37,7.37,0,0,1,.53,3,6.64,6.64,0,0,1-1,3.55,7,7,0,0,1-2.83,2.55,9.48,9.48,0,0,1-4.42,1,12.93,12.93,0,0,1-3.08-.36,16.44,16.44,0,0,1-2.8-.94,11.94,11.94,0,0,1-2.34-1.34l1.61-2.87a9.3,9.3,0,0,0,1.88,1.14,14.32,14.32,0,0,0,2.21.83,8.28,8.28,0,0,0,2.18.32,6.57,6.57,0,0,0,2.22-.39,4.3,4.3,0,0,0,1.84-1.24,3.2,3.2,0,0,0,.73-2.21,3,3,0,0,0-.65-2,5.65,5.65,0,0,0-1.68-1.38,14.71,14.71,0,0,0-2.26-1c-.75-.28-1.53-.59-2.34-1a11.24,11.24,0,0,1-2.25-1.34,6.17,6.17,0,0,1-1.66-1.93,5.83,5.83,0,0,1-.63-2.83,6.33,6.33,0,0,1,3.56-5.86,8.62,8.62,0,0,1,3.84-.89,14.22,14.22,0,0,1,4.38.6,15.1,15.1,0,0,1,3.29,1.49Z"/><path class="cls-1" d="M625.63,1036.13a5.33,5.33,0,0,0,.78,2.85,6,6,0,0,0,2.09,2,5.8,5.8,0,0,0,3,.75,6,6,0,0,0,3-.75,5.71,5.71,0,0,0,2.09-2,5.32,5.32,0,0,0,.77-2.85v-16h3.6v16a8.82,8.82,0,0,1-1.27,4.78,8.62,8.62,0,0,1-3.44,3.17,10.74,10.74,0,0,1-9.59,0,8.68,8.68,0,0,1-3.41-3.17,8.82,8.82,0,0,1-1.27-4.78v-16h3.67Z"/><path class="cls-1" d="M648.55,1020.17h3.63v21.31h12.44V1045H648.55Z"/><path class="cls-1" d="M666.33,1020.17h16.55v3.49h-6.54V1045h-3.67v-21.35h-6.34Z"/><path class="cls-1" d="M700.9,1045v-24.84h6.89a16,16,0,0,1,6.3,1.11,11.17,11.17,0,0,1,4.2,3,11.93,11.93,0,0,1,2.32,4.13,15.16,15.16,0,0,1,.71,4.52,12.4,12.4,0,0,1-1,5,11.55,11.55,0,0,1-2.69,3.82,11.94,11.94,0,0,1-3.94,2.43,13.22,13.22,0,0,1-4.7.84Zm3.64-3.53h3.76a11.34,11.34,0,0,0,3.72-.58,8.43,8.43,0,0,0,3-1.72,7.58,7.58,0,0,0,1.92-2.77,11,11,0,0,0-.07-7.76,7.77,7.77,0,0,0-2-2.81,8.7,8.7,0,0,0-2.85-1.65,9.85,9.85,0,0,0-3.17-.53h-4.24Z"/><path class="cls-1" d="M734.58,1020.17a12.28,12.28,0,0,1,3.62.51,8.23,8.23,0,0,1,2.86,1.51,6.61,6.61,0,0,1,1.85,2.45,8.16,8.16,0,0,1,.65,3.34,10.19,10.19,0,0,1-.43,2.93,7.05,7.05,0,0,1-1.42,2.62,7.2,7.2,0,0,1-2.62,1.89,10.17,10.17,0,0,1-4,.71h-3.63V1045H727.8v-24.84Zm.45,12.4a5.51,5.51,0,0,0,2.31-.43,3.94,3.94,0,0,0,1.48-1.09,4.32,4.32,0,0,0,.75-1.44,5,5,0,0,0,0-2.92,4.66,4.66,0,0,0-.75-1.47,3.87,3.87,0,0,0-1.43-1.13,4.94,4.94,0,0,0-2.19-.43h-3.77v8.91Zm4.18,2.19,6.44,10.25H741.4l-6.54-10.18Z"/><path class="cls-1" d="M751.54,1020.17h3.64V1045h-3.64Z"/><path class="cls-1" d="M765.32,1020.17l8,20-2-.45,7.5-19.56h4.32l-11.07,26-11-26Z"/><path class="cls-1" d="M788.86,1020.17h16.27v3.49H792.49v7.09h11.27v3.53H792.49v7.2h13.12V1045H788.86Z"/><path class="cls-1" d="M810.36,1041.67a1.91,1.91,0,0,1,1.35-.57,1.94,1.94,0,0,1,1.29.57,1.88,1.88,0,0,1,0,2.81,2,2,0,0,1-1.29.53,2,2,0,0,1-1.35-.53,1.94,1.94,0,0,1,0-2.81Z"/></svg>