<svg id="Layer_1" data-name="Layer 1" xmlns="http://www.w3.org/2000/svg" viewBox="0 0 1080 1080"><defs><style>.cls-1{fill:#112012;}.cls-2{font-size:132.64px;font-family:AgencyFB-Reg, Agency FB;}.cls-2,.cls-3{fill:#181c21;}</style></defs><path class="cls-1" d="M821.84,303.09v393.1h-85V236.29L506.74,54.23l-.31,53.09V696.19H403.24V185.66L193.1,354.26V763.33h67.52s-.38-53.55-.38-376.46l75.88-59.65V763.33H574.28v-570l91.26,69.11V763.33H886.9V354.26Z"/><text class="cls-2" transform="translate(346.8 951.03)">M ESTATE</text><path class="cls-3" d="M294.55,1030.93a12.78,12.78,0,0,1-1.61.91,13.61,13.61,0,0,1-2.45.88,11.71,11.71,0,0,1-3.1.33,12.9,12.9,0,0,1-5.06-1,11.2,11.2,0,0,1-3.8-2.63,11.87,11.87,0,0,1-2.39-3.85,12.92,12.92,0,0,1-.83-4.62,14.39,14.39,0,0,1,.85-5,11.09,11.09,0,0,1,6.22-6.53,12.08,12.08,0,0,1,4.77-.93,13,13,0,0,1,4,.58,13.31,13.31,0,0,1,3.05,1.37l-1.46,3.32a14.56,14.56,0,0,0-2.36-1.28,8.16,8.16,0,0,0-6.31,0,8,8,0,0,0-2.66,1.89,9.33,9.33,0,0,0-1.8,2.85,9.12,9.12,0,0,0-.67,3.52,10.13,10.13,0,0,0,.6,3.5,8,8,0,0,0,1.73,2.83A7.89,7.89,0,0,0,284,1029a8.84,8.84,0,0,0,3.5.66,8.69,8.69,0,0,0,3.27-.56,9,9,0,0,0,2.3-1.29Z"/><path class="cls-3" d="M300.78,1008.74h3.52v20.63h12v3.41H300.78Z"/><path class="cls-3" d="M322.47,1008.74H326v24h-3.51Z"/><path class="cls-3" d="M333.71,1008.74h15.75v3.38H337.22V1019h10.91v3.41H337.22v7h12.71v3.41H333.71Z"/><path class="cls-3" d="M377.35,1033.61l-18.54-18.4,1,.36.07,17.21h-3.55V1008h.13l18.27,18.4-.79-.2-.07-17.41h3.52v24.87Z"/><path class="cls-3" d="M383.42,1008.74h16v3.38H393.1v20.66h-3.55v-20.66h-6.13Z"/><path class="cls-3" d="M416.88,1008.74h14.39v3.38H420.39v7.2h9.52v3.42h-9.52v10h-3.51Z"/><path class="cls-3" d="M435.51,1020.78a11.9,11.9,0,0,1,.95-4.71,12.79,12.79,0,0,1,2.62-4,12.21,12.21,0,0,1,13.44-2.68,12.31,12.31,0,0,1,3.93,2.68,12.76,12.76,0,0,1,2.67,4,11.74,11.74,0,0,1,1,4.71,11.89,11.89,0,0,1-1,4.77,12.16,12.16,0,0,1-2.68,3.92,12.85,12.85,0,0,1-3.93,2.63,12,12,0,0,1-4.76,1,12.3,12.3,0,0,1-4.78-.93,12,12,0,0,1-3.89-2.6,12.19,12.19,0,0,1-3.57-8.74Zm3.65,0a9,9,0,0,0,.66,3.46,8.71,8.71,0,0,0,4.63,4.71,8.36,8.36,0,0,0,3.4.68,8.19,8.19,0,0,0,3.35-.68,8.36,8.36,0,0,0,2.73-1.89,8.55,8.55,0,0,0,1.84-2.82,9,9,0,0,0,.67-3.46,8.91,8.91,0,0,0-.68-3.47,9.66,9.66,0,0,0-1.84-2.83,8.59,8.59,0,0,0-9.57-1.92,8.56,8.56,0,0,0-4.56,4.77A9.43,9.43,0,0,0,439.16,1020.78Z"/><path class="cls-3" d="M484.06,1030.93a12.78,12.78,0,0,1-1.61.91,13.61,13.61,0,0,1-2.45.88,11.71,11.71,0,0,1-3.1.33,12.9,12.9,0,0,1-5.06-1,11.2,11.2,0,0,1-3.8-2.63,11.87,11.87,0,0,1-2.39-3.85,12.91,12.91,0,0,1-.82-4.62,14.39,14.39,0,0,1,.84-5,11.39,11.39,0,0,1,2.44-4,11.2,11.2,0,0,1,3.78-2.58,12.08,12.08,0,0,1,4.77-.93,13,13,0,0,1,4,.58,13.31,13.31,0,0,1,3.05,1.37l-1.46,3.32a14.56,14.56,0,0,0-2.36-1.28,7.66,7.66,0,0,0-3.15-.61,7.78,7.78,0,0,0-3.16.66,8,8,0,0,0-2.66,1.89,9.32,9.32,0,0,0-2.47,6.37,10.13,10.13,0,0,0,.6,3.5,8.12,8.12,0,0,0,1.72,2.83,8,8,0,0,0,2.67,1.86,8.84,8.84,0,0,0,3.5.66,8.69,8.69,0,0,0,3.27-.56,9,9,0,0,0,2.3-1.29Z"/><path class="cls-3" d="M493.44,1024.19a5.12,5.12,0,0,0,.77,2.76,5.64,5.64,0,0,0,2,2,5.55,5.55,0,0,0,2.85.73,5.8,5.8,0,0,0,2.94-.73,5.56,5.56,0,0,0,2-2,5.2,5.2,0,0,0,.75-2.76v-15.45h3.48v15.52a8.58,8.58,0,0,1-1.23,4.63,8.47,8.47,0,0,1-3.33,3.06,10.36,10.36,0,0,1-9.29,0,8.36,8.36,0,0,1-4.53-7.69v-15.52h3.55Z"/><path class="cls-3" d="M528.13,1013.32a20.32,20.32,0,0,0-2.72-1.11,9,9,0,0,0-2.82-.48,4.72,4.72,0,0,0-3,.84,2.76,2.76,0,0,0-1.09,2.31,2.5,2.5,0,0,0,.73,1.79,6.62,6.62,0,0,0,1.89,1.34,20,20,0,0,0,2.45,1,19.58,19.58,0,0,1,2.17,1,8.83,8.83,0,0,1,2,1.34,5.7,5.7,0,0,1,1.39,2,7.28,7.28,0,0,1,.51,2.9,6.43,6.43,0,0,1-.94,3.43,6.73,6.73,0,0,1-2.74,2.47,9.15,9.15,0,0,1-4.27.93,12.69,12.69,0,0,1-3-.35,16.47,16.47,0,0,1-2.7-.91,12.59,12.59,0,0,1-2.27-1.29l1.56-2.79a9.29,9.29,0,0,0,1.82,1.11,14,14,0,0,0,2.14.8,7.7,7.7,0,0,0,2.11.31,6.45,6.45,0,0,0,2.15-.38,4.12,4.12,0,0,0,1.77-1.19,3.13,3.13,0,0,0,.72-2.14,3,3,0,0,0-.63-1.91,5.45,5.45,0,0,0-1.63-1.34,13.81,13.81,0,0,0-2.19-1c-.73-.26-1.48-.57-2.27-.93a10.72,10.72,0,0,1-2.17-1.29,6,6,0,0,1-1.61-1.87,5.58,5.58,0,0,1-.61-2.74,6.11,6.11,0,0,1,3.45-5.67,8.35,8.35,0,0,1,3.71-.86,13.78,13.78,0,0,1,4.25.58,15,15,0,0,1,3.18,1.44Z"/><path class="cls-3" d="M534,1029.55a1.86,1.86,0,0,1,1.3-.55,1.92,1.92,0,0,1,1.25.55,1.73,1.73,0,0,1,.61,1.34,1.7,1.7,0,0,1-.61,1.38,2,2,0,0,1-1.25.51,1.91,1.91,0,0,1-1.3-.51,1.73,1.73,0,0,1-.58-1.38A1.77,1.77,0,0,1,534,1029.55Z"/><path class="cls-3" d="M560.43,1008.74a11.89,11.89,0,0,1,3.5.5,8.05,8.05,0,0,1,2.77,1.46,6.45,6.45,0,0,1,1.78,2.37,7.86,7.86,0,0,1,.64,3.23,9.92,9.92,0,0,1-.42,2.84,6.8,6.8,0,0,1-3.91,4.36,9.72,9.72,0,0,1-3.9.69h-3.51v8.59h-3.52v-24Zm.43,12a5.36,5.36,0,0,0,2.24-.42,3.66,3.66,0,0,0,1.42-1.06,3.8,3.8,0,0,0,.73-1.39,4.63,4.63,0,0,0,0-2.82,4.22,4.22,0,0,0-.73-1.43,3.75,3.75,0,0,0-1.37-1.09,4.87,4.87,0,0,0-2.13-.42h-3.64v8.63Zm4,2.12,6.24,9.91H567l-6.34-9.85Z"/><path class="cls-3" d="M576.84,1008.74h15.75v3.38H580.36V1019h10.91v3.41H580.36v7h12.7v3.41H576.84Z"/><path class="cls-3" d="M612,1013.32a20.32,20.32,0,0,0-2.72-1.11,9,9,0,0,0-2.82-.48,4.72,4.72,0,0,0-3,.84,2.76,2.76,0,0,0-1.09,2.31,2.5,2.5,0,0,0,.73,1.79A6.62,6.62,0,0,0,605,1018a20,20,0,0,0,2.45,1,19.58,19.58,0,0,1,2.17,1,8.83,8.83,0,0,1,2,1.34,5.57,5.57,0,0,1,1.39,2,7.1,7.1,0,0,1,.52,2.9,6.44,6.44,0,0,1-.95,3.43,6.77,6.77,0,0,1-2.73,2.47,9.22,9.22,0,0,1-4.28.93,12.69,12.69,0,0,1-3-.35,16.47,16.47,0,0,1-2.7-.91,12.59,12.59,0,0,1-2.27-1.29l1.56-2.79a9.29,9.29,0,0,0,1.82,1.11,14.46,14.46,0,0,0,2.14.8,7.7,7.7,0,0,0,2.11.31,6.41,6.41,0,0,0,2.15-.38,4.21,4.21,0,0,0,1.78-1.19,3.18,3.18,0,0,0,.71-2.14,3,3,0,0,0-.63-1.91,5.45,5.45,0,0,0-1.63-1.34,14.11,14.11,0,0,0-2.18-1q-1.09-.39-2.28-.93a10.72,10.72,0,0,1-2.17-1.29,6,6,0,0,1-1.61-1.87,5.58,5.58,0,0,1-.61-2.74,6.22,6.22,0,0,1,.91-3.38,6.34,6.34,0,0,1,2.54-2.29,8.35,8.35,0,0,1,3.71-.86,13.78,13.78,0,0,1,4.25.58,15,15,0,0,1,3.18,1.44Z"/><path class="cls-3" d="M622.87,1024.19a5.12,5.12,0,0,0,.76,2.76,5.72,5.72,0,0,0,2,2,5.55,5.55,0,0,0,2.85.73,5.78,5.78,0,0,0,2.94-.73,5.56,5.56,0,0,0,2-2,5.2,5.2,0,0,0,.75-2.76v-15.45h3.48v15.52a8.58,8.58,0,0,1-1.23,4.63,8.47,8.47,0,0,1-3.33,3.06,10.34,10.34,0,0,1-9.28,0,8.49,8.49,0,0,1-3.31-3.06,8.67,8.67,0,0,1-1.22-4.63v-15.52h3.55Z"/><path class="cls-3" d="M645.05,1008.74h3.52v20.63h12v3.41H645.05Z"/><path class="cls-3" d="M662.26,1008.74h16v3.38H672v20.66H668.4v-20.66h-6.14Z"/><path class="cls-3" d="M695.72,1032.78v-24h6.67a15.48,15.48,0,0,1,6.1,1.08,10.89,10.89,0,0,1,4.06,2.88,11.58,11.58,0,0,1,2.24,4,14.51,14.51,0,0,1,.69,4.38,11.94,11.94,0,0,1-.94,4.84,11.1,11.1,0,0,1-2.6,3.7,11.63,11.63,0,0,1-3.82,2.35,12.77,12.77,0,0,1-4.54.81Zm3.52-3.41h3.64a10.87,10.87,0,0,0,3.6-.57,7.91,7.91,0,0,0,2.85-1.65,7.22,7.22,0,0,0,1.86-2.69,10.64,10.64,0,0,0-.07-7.51,7.36,7.36,0,0,0-2-2.72,8.2,8.2,0,0,0-2.75-1.59,9.56,9.56,0,0,0-3.07-.52h-4.11Z"/><path class="cls-3" d="M728.32,1008.74a11.77,11.77,0,0,1,3.49.5,7.88,7.88,0,0,1,2.77,1.46,6.39,6.39,0,0,1,1.8,2.37,8,8,0,0,1,.63,3.23,9.92,9.92,0,0,1-.42,2.84,6.74,6.74,0,0,1-1.38,2.53,6.92,6.92,0,0,1-2.53,1.83,9.72,9.72,0,0,1-3.9.69h-3.51v8.59h-3.52v-24Zm.43,12a5.36,5.36,0,0,0,2.24-.42,3.73,3.73,0,0,0,1.42-1.06,4,4,0,0,0,.73-1.39,4.63,4.63,0,0,0,0-2.82,4.41,4.41,0,0,0-.73-1.43,3.75,3.75,0,0,0-1.37-1.09,4.87,4.87,0,0,0-2.13-.42h-3.64v8.63Zm4,2.12,6.24,9.91h-4.11l-6.34-9.85Z"/><path class="cls-3" d="M744.73,1008.74h3.52v24h-3.52Z"/><path class="cls-3" d="M758.06,1008.74l7.73,19.37-2-.43,7.26-18.94h4.18l-10.71,25.14-10.68-25.14Z"/><path class="cls-3" d="M780.84,1008.74h15.75v3.38H784.36V1019h10.91v3.41H784.36v7h12.7v3.41H780.84Z"/><path class="cls-3" d="M801.65,1029.55A1.88,1.88,0,0,1,803,1029a1.94,1.94,0,0,1,1.25.55,1.76,1.76,0,0,1,.61,1.34,1.72,1.72,0,0,1-.61,1.38,2,2,0,0,1-1.25.51,1.93,1.93,0,0,1-1.31-.51,1.73,1.73,0,0,1-.58-1.38A1.77,1.77,0,0,1,801.65,1029.55Z"/></svg>