<svg id="Layer_1" data-name="Layer 1" xmlns="http://www.w3.org/2000/svg" viewBox="0 0 1080 1080"><defs><style>.cls-1{fill:#181c21;}.cls-2,.cls-3{fill:#b9a35f;}.cls-3{font-size:79.71px;font-family:AgencyFB-Reg, Agency FB;}</style></defs><rect class="cls-1" width="1080" height="1080"/><path class="cls-2" d="M708.85,392.57v235.5H657.94V352.55L520.07,243.48l-.18,31.81V628.07H458.07V322.22l-125.9,101V668.3h40.45s-.22-32.08-.22-225.53L417.85,407V668.3H560.54V326.79l54.67,41.41V668.3H747.83V423.22Z"/><text class="cls-3" transform="translate(423.9 781.73)">M ESTATE</text><path class="cls-2" d="M392.51,829.74a8.13,8.13,0,0,1-1,.55,7.83,7.83,0,0,1-1.47.53,7.35,7.35,0,0,1-1.87.2,8.11,8.11,0,0,1-3-.6,6.88,6.88,0,0,1-2.28-1.59,7.06,7.06,0,0,1-1.43-2.31,7.54,7.54,0,0,1-.5-2.78,8.61,8.61,0,0,1,.51-3,6.64,6.64,0,0,1,3.73-3.92,7.34,7.34,0,0,1,2.87-.56,7.83,7.83,0,0,1,2.41.35,8.07,8.07,0,0,1,1.84.83l-.88,2a9.11,9.11,0,0,0-1.41-.77,4.79,4.79,0,0,0-5.39,1.17,5.53,5.53,0,0,0-1.49,3.82,6.11,6.11,0,0,0,.36,2.11,4.84,4.84,0,0,0,1,1.7,4.6,4.6,0,0,0,1.6,1.11,5.21,5.21,0,0,0,2.1.4,5.33,5.33,0,0,0,2-.33,5.46,5.46,0,0,0,1.39-.78Z"/><path class="cls-2" d="M396.25,816.41h2.11V828.8h7.24v2.06h-9.35Z"/><path class="cls-2" d="M409.28,816.41h2.12v14.45h-2.12Z"/><path class="cls-2" d="M416,816.41h9.46v2h-7.35v4.13h6.56v2h-6.56v4.18h7.63v2.06H416Z"/><path class="cls-2" d="M442.26,831.35l-11.14-11.06.62.22,0,10.35h-2.13V815.93h.08l11,11.06-.48-.12,0-10.46h2.11v14.94Z"/><path class="cls-2" d="M445.91,816.41h9.62v2h-3.8v12.42h-2.14V818.44h-3.68Z"/><path class="cls-2" d="M466,816.41h8.65v2h-6.53v4.33h5.71v2.05h-5.71v6H466Z"/><path class="cls-2" d="M477.21,823.64a7.16,7.16,0,0,1,.57-2.83,7.71,7.71,0,0,1,1.57-2.37,7.29,7.29,0,0,1,2.35-1.61,7.37,7.37,0,0,1,5.73,0,7.49,7.49,0,0,1,2.37,1.61,7.8,7.8,0,0,1,1.6,2.37,7.29,7.29,0,0,1,0,5.7,7.34,7.34,0,0,1-1.61,2.35,7.71,7.71,0,0,1-2.37,1.59,7.11,7.11,0,0,1-2.85.57,7.3,7.3,0,0,1-7.36-7.38Zm2.19,0a5.56,5.56,0,0,0,.4,2.09,5.36,5.36,0,0,0,1.12,1.69,5.26,5.26,0,0,0,1.66,1.13,5,5,0,0,0,2.05.41,4.89,4.89,0,0,0,2-.41,5.17,5.17,0,0,0,1.64-1.13,5.33,5.33,0,0,0,1.51-3.78,5.36,5.36,0,0,0-.41-2.08,5.55,5.55,0,0,0-1.11-1.7,5,5,0,0,0-3.7-1.58,5,5,0,0,0-2.05.42,5.19,5.19,0,0,0-1.65,1.16,5.26,5.26,0,0,0-1.09,1.71A5.72,5.72,0,0,0,479.4,823.64Z"/><path class="cls-2" d="M506.38,829.74a7.16,7.16,0,0,1-1,.55,7.69,7.69,0,0,1-1.48.53,7.22,7.22,0,0,1-1.86.2,8.11,8.11,0,0,1-3-.6,6.68,6.68,0,0,1-2.28-1.59,6.9,6.9,0,0,1-1.43-2.31,7.54,7.54,0,0,1-.5-2.78,8.84,8.84,0,0,1,.5-3,6.87,6.87,0,0,1,1.47-2.37,6.79,6.79,0,0,1,2.27-1.55,7.31,7.31,0,0,1,2.87-.56,7.88,7.88,0,0,1,2.41.35,7.79,7.79,0,0,1,1.83.83l-.87,2a8.8,8.8,0,0,0-1.42-.77,4.86,4.86,0,0,0-3.79,0,4.88,4.88,0,0,0-1.6,1.14,5.4,5.4,0,0,0-1.08,1.71,5.47,5.47,0,0,0-.4,2.11,6.11,6.11,0,0,0,.36,2.11,5,5,0,0,0,1,1.7,4.74,4.74,0,0,0,1.61,1.11,5.18,5.18,0,0,0,2.1.4,5.37,5.37,0,0,0,2-.33,5.46,5.46,0,0,0,1.39-.78Z"/><path class="cls-2" d="M512,825.7a3.1,3.1,0,0,0,.46,1.65,3.54,3.54,0,0,0,1.22,1.18,3.34,3.34,0,0,0,1.71.43,3.48,3.48,0,0,0,1.76-.43,3.37,3.37,0,0,0,1.22-1.18,3.1,3.1,0,0,0,.45-1.65v-9.29h2.09v9.33a5.14,5.14,0,0,1-.74,2.77,5,5,0,0,1-2,1.85,6.23,6.23,0,0,1-5.58,0,5,5,0,0,1-2-1.85,5.14,5.14,0,0,1-.74-2.77v-9.33H512Z"/><path class="cls-2" d="M532.87,819.16a12.2,12.2,0,0,0-1.64-.67,5.46,5.46,0,0,0-1.69-.29,2.78,2.78,0,0,0-1.77.51,1.66,1.66,0,0,0-.66,1.39,1.46,1.46,0,0,0,.44,1.07,4,4,0,0,0,1.13.81,15.3,15.3,0,0,0,1.48.63c.43.16.87.35,1.3.56a5.37,5.37,0,0,1,1.18.81,3.4,3.4,0,0,1,.83,1.19,4.27,4.27,0,0,1,.31,1.74,3.82,3.82,0,0,1-.57,2.06,4,4,0,0,1-1.64,1.49A5.54,5.54,0,0,1,529,831a7.5,7.5,0,0,1-1.79-.21,10.4,10.4,0,0,1-1.63-.55,7.69,7.69,0,0,1-1.36-.78l.94-1.67a5.76,5.76,0,0,0,1.09.67,7.92,7.92,0,0,0,1.29.47,4.43,4.43,0,0,0,1.26.19,3.68,3.68,0,0,0,1.3-.23,2.52,2.52,0,0,0,1.06-.71,1.88,1.88,0,0,0,.43-1.29,1.76,1.76,0,0,0-.38-1.14,3.23,3.23,0,0,0-1-.81,8,8,0,0,0-1.32-.6c-.44-.16-.89-.35-1.36-.56a6.54,6.54,0,0,1-1.31-.77,3.76,3.76,0,0,1-1-1.13,3.43,3.43,0,0,1-.36-1.64,3.63,3.63,0,0,1,2.07-3.41,5,5,0,0,1,2.23-.52,8.4,8.4,0,0,1,2.55.35,8.19,8.19,0,0,1,1.91.87Z"/><path class="cls-2" d="M536.4,828.91a1.06,1.06,0,0,1,1.54,0,1.07,1.07,0,0,1,.37.81,1,1,0,0,1-.37.83,1.11,1.11,0,0,1-1.54,0,1.06,1.06,0,0,1-.35-.83A1.08,1.08,0,0,1,536.4,828.91Z"/><path class="cls-2" d="M552.27,816.41a7.13,7.13,0,0,1,2.11.3,4.86,4.86,0,0,1,1.66.87,4.13,4.13,0,0,1,1.08,1.43,4.76,4.76,0,0,1,.38,1.94,6.32,6.32,0,0,1-.25,1.71,4.26,4.26,0,0,1-.83,1.52,4.21,4.21,0,0,1-1.53,1.1,5.76,5.76,0,0,1-2.34.42h-2.11v5.16h-2.11V816.41Zm.26,7.21a3.22,3.22,0,0,0,1.35-.25,2.27,2.27,0,0,0,.86-.63,2.4,2.4,0,0,0,.43-.84,2.93,2.93,0,0,0,.13-.85,2.87,2.87,0,0,0-.13-.84,2.57,2.57,0,0,0-.43-.86,2.38,2.38,0,0,0-.83-.66,3,3,0,0,0-1.28-.25h-2.19v5.18ZM555,824.9l3.75,6h-2.47l-3.81-5.92Z"/><path class="cls-2" d="M562.14,816.41h9.46v2h-7.35v4.13h6.56v2h-6.56v4.18h7.63v2.06h-9.74Z"/><path class="cls-2" d="M583.26,819.16a12.62,12.62,0,0,0-1.63-.67,5.52,5.52,0,0,0-1.7-.29,2.82,2.82,0,0,0-1.77.51,1.66,1.66,0,0,0-.66,1.39,1.5,1.5,0,0,0,.44,1.07,3.87,3.87,0,0,0,1.14.81,14.12,14.12,0,0,0,1.47.63c.44.16.87.35,1.31.56A5.31,5.31,0,0,1,583,824a3.56,3.56,0,0,1,.84,1.19,4.44,4.44,0,0,1,.31,1.74,3.82,3.82,0,0,1-.57,2.06,4.06,4.06,0,0,1-1.65,1.49,5.51,5.51,0,0,1-2.57.56,7.5,7.5,0,0,1-1.79-.21,10.28,10.28,0,0,1-1.62-.55,7.79,7.79,0,0,1-1.37-.78l.94-1.67a6.09,6.09,0,0,0,1.09.67,8.28,8.28,0,0,0,1.29.47,4.55,4.55,0,0,0,1.27.19,3.62,3.62,0,0,0,1.29-.23,2.55,2.55,0,0,0,1.07-.71,1.93,1.93,0,0,0,.42-1.29,1.75,1.75,0,0,0-.37-1.14,3.27,3.27,0,0,0-1-.81,8,8,0,0,0-1.32-.6c-.43-.16-.89-.35-1.36-.56a6.83,6.83,0,0,1-1.31-.77,3.73,3.73,0,0,1-1-1.13,3.31,3.31,0,0,1-.37-1.64,3.67,3.67,0,0,1,2.07-3.41,5,5,0,0,1,2.23-.52,8.31,8.31,0,0,1,2.55.35,8.47,8.47,0,0,1,1.92.87Z"/><path class="cls-2" d="M589.79,825.7a3.1,3.1,0,0,0,.46,1.65,3.54,3.54,0,0,0,1.22,1.18,3.34,3.34,0,0,0,1.71.43,3.54,3.54,0,0,0,1.77-.43,3.42,3.42,0,0,0,1.21-1.18,3.1,3.1,0,0,0,.45-1.65v-9.29h2.09v9.33a5.06,5.06,0,0,1-.74,2.77,5,5,0,0,1-2,1.85,6.23,6.23,0,0,1-5.58,0,5,5,0,0,1-2-1.85,5.14,5.14,0,0,1-.74-2.77v-9.33h2.13Z"/><path class="cls-2" d="M603.13,816.41h2.11V828.8h7.23v2.06h-9.34Z"/><path class="cls-2" d="M613.47,816.41h9.62v2h-3.8v12.42h-2.14V818.44h-3.68Z"/><path class="cls-2" d="M633.57,830.86V816.41h4a9.37,9.37,0,0,1,3.67.65,6.61,6.61,0,0,1,2.44,1.73,7.13,7.13,0,0,1,1.34,2.4,8.65,8.65,0,0,1,.42,2.63,7.13,7.13,0,0,1-.57,2.91,6.55,6.55,0,0,1-1.56,2.22,7,7,0,0,1-2.29,1.42,7.85,7.85,0,0,1-2.73.49Zm2.12-2.06h2.19a6.52,6.52,0,0,0,2.16-.34,4.69,4.69,0,0,0,1.71-1,4.32,4.32,0,0,0,1.12-1.62,5.67,5.67,0,0,0,.39-2.17,5.78,5.78,0,0,0-.43-2.34,4.48,4.48,0,0,0-1.18-1.63,5,5,0,0,0-1.65-1,5.56,5.56,0,0,0-1.84-.31h-2.47Z"/><path class="cls-2" d="M653.16,816.41a7,7,0,0,1,2.1.3,4.91,4.91,0,0,1,1.67.87A4,4,0,0,1,658,819a4.76,4.76,0,0,1,.38,1.94,6,6,0,0,1-.25,1.71,4.09,4.09,0,0,1-.82,1.52,4.3,4.3,0,0,1-1.53,1.1,5.76,5.76,0,0,1-2.34.42h-2.11v5.16h-2.11V816.41Zm.26,7.21a3.14,3.14,0,0,0,1.34-.25,2.12,2.12,0,0,0,.86-.63,2.42,2.42,0,0,0,.44-.84,2.93,2.93,0,0,0,.13-.85,2.87,2.87,0,0,0-.13-.84,2.6,2.6,0,0,0-.44-.86,2.21,2.21,0,0,0-.83-.66,3,3,0,0,0-1.27-.25h-2.19v5.18Zm2.43,1.28,3.75,6h-2.47l-3.81-5.92Z"/><path class="cls-2" d="M663,816.41h2.12v14.45H663Z"/><path class="cls-2" d="M671,816.41l4.65,11.64-1.2-.26,4.37-11.38h2.51l-6.44,15.1-6.42-15.1Z"/><path class="cls-2" d="M684.72,816.41h9.47v2h-7.35v4.13h6.55v2h-6.55v4.18h7.63v2.06h-9.75Z"/><path class="cls-2" d="M697.23,828.91a1.05,1.05,0,0,1,1.53,0,1,1,0,0,1,.37.81,1,1,0,0,1-.37.83,1.1,1.1,0,0,1-1.53,0,1.06,1.06,0,0,1-.35-.83A1.08,1.08,0,0,1,697.23,828.91Z"/></svg>